<?xml version="1.0" ?><!DOCTYPE svg  PUBLIC '-//W3C//DTD SVG 1.1//EN'  'http://www.w3.org/Graphics/SVG/1.1/DTD/svg11.dtd'><svg enable-background="new 0 0 60 60" height="60px" id="图层_1" version="1.1" viewBox="0 0 60 60" width="60px" xml:space="preserve" xmlns="http://www.w3.org/2000/svg" xmlns:xlink="http://www.w3.org/1999/xlink"><path d="M47.646,16.402c3.292,0,5.961-2.669,5.961-5.961  c0-3.292-2.669-5.961-5.961-5.961c-3.293,0-5.961,2.668-5.961,5.961C41.686,13.733,44.354,16.402,47.646,16.402z M41.686,47.04  c0,1.891,1.546,3.438,3.437,3.438h5.048c1.891,0,3.438-1.547,3.438-3.438v-9.193h1.955c1.891,0,3.438-1.547,3.438-3.438V23.901  c0-1.891-1.547-3.437-3.438-3.437H39.729c-1.062,0-2.017,0.489-2.648,1.253" fill="none" stroke="#3E3E3E" stroke-miterlimit="10" stroke-width="2"/><path d="M12.354,16.402c3.292,0,5.96-2.669,5.96-5.961  c0-3.292-2.668-5.961-5.96-5.961s-5.961,2.668-5.961,5.961C6.393,13.733,9.062,16.402,12.354,16.402z M23.056,21.894  c-0.626-0.865-1.643-1.43-2.786-1.43H4.437C2.547,20.464,1,22.011,1,23.901v10.508c0,1.891,1.547,3.438,3.437,3.438h1.956v9.193  c0,1.891,1.547,3.438,3.437,3.438h5.047c1.89,0,3.437-1.547,3.437-3.438" fill="none" stroke="#3E3E3E" stroke-miterlimit="10" stroke-width="2"/><path d="M30.083,20.505c3.746,0,6.782-3.036,6.782-6.782  c0-3.746-3.036-6.782-6.782-6.782c-3.746,0-6.782,3.037-6.782,6.782C23.301,17.469,26.337,20.505,30.083,20.505z M39.091,24.851  H21.076c-2.151,0-3.911,1.76-3.911,3.911v11.956c0,2.15,1.76,3.91,3.911,3.91h2.225v10.461c0,2.151,1.76,3.911,3.911,3.911h5.742  c2.151,0,3.911-1.76,3.911-3.911V44.628h2.226c2.15,0,3.91-1.76,3.91-3.91V28.762C43.001,26.611,41.241,24.851,39.091,24.851z" fill="none" stroke="#3E3E3E" stroke-miterlimit="10" stroke-width="2"/></svg>