<?xml version="1.0" ?><svg viewBox="0 0 24 24" xmlns="http://www.w3.org/2000/svg"><defs><style>.cls-1{fill:none;stroke:#231f20;stroke-linecap:round;stroke-linejoin:round;stroke-width:2px;}</style></defs><title/><g data-name="Layer 10" id="Layer_10"><path class="cls-1" d="M12,6.27s-3,0-3,1.87v3a2.91,2.91,0,0,0,1.32,2.48l.38.24a2.44,2.44,0,0,0,2.6,0l.38-.24A2.91,2.91,0,0,0,15,11.17v-3C15,6.27,12,6.27,12,6.27Z"/><path class="cls-1" d="M15,12.83a6,6,0,0,1,1.2.93A5.94,5.94,0,0,1,18,18H6a5.94,5.94,0,0,1,1.76-4.24A6,6,0,0,1,9,12.83"/><path class="cls-1" d="M15,12v-.15A2,2,0,0,0,15.83,13l.26.16a1.71,1.71,0,0,0,1.77,0l.25-.16A2,2,0,0,0,19,11.34V9.29C19,8,17,8,17,8s-1.46,0-1.9.77"/><path class="cls-1" d="M19,12.47a4.21,4.21,0,0,1,.82.64A4.07,4.07,0,0,1,21,16H18"/><path class="cls-1" d="M8.92,8.79C8.48,8,7,8,7,8S5,8,5,9.29v2.05A2,2,0,0,0,5.89,13l.25.16a1.71,1.71,0,0,0,1.77,0L8.17,13A2,2,0,0,0,9,11.85V12"/><path class="cls-1" d="M6,16H3a4.07,4.07,0,0,1,1.2-2.89A4.21,4.21,0,0,1,5,12.47"/></g></svg>