<?xml version="1.0" ?><svg id="Layer_1" style="enable-background:new 0 0 32 32;" version="1.1" viewBox="0 0 32 32" xml:space="preserve" xmlns="http://www.w3.org/2000/svg" xmlns:xlink="http://www.w3.org/1999/xlink"><style type="text/css">
	.st0{fill:#414042;}
</style><g><path class="st0" d="M2,14.94C2.17,14.98,2.33,15,2.5,15c1.82,0,2.77-0.73,3.54-1.31c0.29-0.22,0.54-0.41,0.8-0.53L8.88,4H4   C3.91,4,3.83,3.99,3.74,3.97l-3.7,8.32C0.01,12.36,0,12.43,0,12.5C0,13.83,0.96,14.72,2,14.94z"/><path class="st0" d="M7.88,13.07c0.25,0.1,0.46,0.3,0.75,0.6C9.17,14.24,9.9,15,11.5,15c1.72,0,2.5-0.72,3.12-1.29   c0.31-0.28,0.56-0.51,0.89-0.62L15.5,4H9.9L7.88,13.07z"/><path class="st0" d="M28,4h-4.88l2.04,9.16c0,0,0,0,0,0c0.26,0.12,0.51,0.31,0.8,0.53C26.73,14.27,27.68,15,29.5,15   c0.17,0,0.33-0.02,0.5-0.06c1.04-0.22,2-1.11,2-2.44c0-0.07-0.01-0.14-0.04-0.2l-3.7-8.32C28.17,3.99,28.09,4,28,4z"/><path class="st0" d="M4,3h12h0h12c0.55,0,1-0.45,1-1s-0.45-1-1-1H4C3.45,1,3,1.45,3,2S3.45,3,4,3z"/><path class="st0" d="M16.5,4l0.01,9.09c0.32,0.12,0.57,0.34,0.88,0.62C18,14.28,18.78,15,20.5,15c1.6,0,2.33-0.76,2.86-1.32   c0.29-0.31,0.5-0.5,0.75-0.6L22.1,4H16.5z"/><path class="st0" d="M31.5,30H30V15.95C29.83,15.98,29.67,16,29.5,16c-2.16,0-3.35-0.91-4.15-1.51C24.88,14.13,24.7,14,24.48,14   c-0.07,0.03-0.29,0.26-0.39,0.37C23.51,14.98,22.53,16,20.5,16c-2.12,0-3.13-0.94-3.8-1.56C16.28,14.05,16.2,14,16.01,14   c-0.21,0-0.28,0.05-0.71,0.44C14.63,15.06,13.62,16,11.5,16c-2.03,0-3.01-1.02-3.59-1.63C7.81,14.26,7.6,14.03,7.5,14   c-0.2,0-0.38,0.13-0.86,0.49C5.85,15.09,4.66,16,2.5,16c-0.17,0-0.33-0.02-0.5-0.05V30H0.5C0.22,30,0,30.22,0,30.5S0.22,31,0.5,31   H5V17.5C5,17.22,5.22,17,5.5,17h9c0.28,0,0.5,0.22,0.5,0.5V31h2v-3.5c0-0.28,0.22-0.5,0.5-0.5h9c0.28,0,0.5,0.22,0.5,0.5V31h4.5   c0.28,0,0.5-0.22,0.5-0.5S31.78,30,31.5,30z M28,25.5c0,0.28-0.22,0.5-0.5,0.5h-11c-0.28,0-0.5-0.22-0.5-0.5v-8   c0-0.28,0.22-0.5,0.5-0.5h11c0.28,0,0.5,0.22,0.5,0.5V25.5z"/><rect class="st0" height="7" width="10" x="17" y="18"/><rect class="st0" height="3" width="8" x="18" y="28"/><path class="st0" d="M6,31h8V18H6V31z M12,22.5c0-0.28,0.22-0.5,0.5-0.5s0.5,0.22,0.5,0.5v2c0,0.28-0.22,0.5-0.5,0.5   S12,24.78,12,24.5V22.5z"/></g></svg>