<?xml version="1.0" ?><svg enable-background="new 0 0 64 64" id="Layer_1" version="1.1" viewBox="0 0 64 64" xml:space="preserve" xmlns="http://www.w3.org/2000/svg" xmlns:xlink="http://www.w3.org/1999/xlink"><g><path d="M56.177,46.183c-2.122-5.023-3.367-10.373-3.367-15.826v-1.271c0-9.774-6.774-17.994-15.872-20.216   c0.461-0.866,0.701-1.866,0.643-2.926c-0.158-2.881-2.546-5.2-5.431-5.275C29,0.586,26.411,3.124,26.411,6.256   c0,0.944,0.236,1.834,0.651,2.614c-9.099,2.223-15.872,10.443-15.872,20.216v1.27c0,5.453-1.245,10.804-3.368,15.827   c-0.282,0.667-0.438,1.399-0.438,2.167c0,3.086,2.502,5.588,5.588,5.588h38.052c3.086,0,5.588-2.502,5.588-5.588   C56.615,47.582,56.459,46.85,56.177,46.183z M32,8.277c-1.115,0-2.022-0.907-2.022-2.021c0-1.115,0.907-2.022,2.022-2.022   c1.114,0,2.021,0.907,2.021,2.022C34.021,7.37,33.115,8.277,32,8.277z" fill="#3E4753"/><path d="M32.06,63.333c4.411,0,8.121-3.058,9.124-7.165H22.935C23.939,60.276,27.648,63.333,32.06,63.333z" fill="#3E4753"/></g></svg>