<?xml version="1.0" ?><svg id="Layer_1" style="enable-background:new 0 0 32 32;" version="1.1" viewBox="0 0 32 32" xml:space="preserve" xmlns="http://www.w3.org/2000/svg" xmlns:xlink="http://www.w3.org/1999/xlink"><style type="text/css">
	.st0{fill:#414042;}
</style><path class="st0" d="M31.27,15.56L16.44,0.73C15.97,0.26,15.34,0,14.67,0H2.5C1.12,0,0,1.12,0,2.5v12.17c0,0.67,0.26,1.3,0.73,1.77  l1.28,1.28C2.01,18.06,2,18.4,2,18.75c0,5.7,1.4,11.75,4,11.75c1.6,0,2.75-2.3,3.39-5.4l-0.85-0.85C7.94,27.59,6.86,29.5,6,29.5  c-1.25,0-3-4.09-3-10.75c0-0.01,0-0.03,0-0.04l5.54,5.54C8.82,22.71,9,20.86,9,18.75C9,12.09,7.25,8,6,8c0.48,0,0.92-0.18,1.26-0.46  C9.05,9.14,10,14.06,10,18.75c0,2.18-0.21,4.42-0.61,6.35l6.17,6.17c0.49,0.49,1.13,0.73,1.77,0.73c0.64,0,1.28-0.24,1.77-0.73  L31.27,19.1C31.74,18.63,32,18,32,17.33C32,16.66,31.74,16.03,31.27,15.56z M7.26,7.54C6.88,7.2,6.46,7,6,7  C5.56,7,5.14,7.18,4.75,7.53C4.3,7.16,4,6.62,4,6c0-1.1,0.9-2,2-2c1.1,0,2,0.9,2,2C8,6.62,7.71,7.17,7.26,7.54z M14.15,16.15l5-5  c0.2-0.2,0.51-0.2,0.71,0c0.2,0.2,0.2,0.51,0,0.71l-5,5c-0.1,0.1-0.23,0.15-0.35,0.15c-0.13,0-0.26-0.05-0.35-0.15  C13.95,16.66,13.95,16.34,14.15,16.15z M13.85,23.85c-0.1,0.1-0.23,0.15-0.35,0.15c-0.13,0-0.26-0.05-0.35-0.15  c-0.2-0.2-0.2-0.51,0-0.71l9-9c0.2-0.2,0.51-0.2,0.71,0c0.2,0.2,0.2,0.51,0,0.71L13.85,23.85z M25.85,17.85l-9,9  c-0.1,0.1-0.23,0.15-0.35,0.15c-0.13,0-0.26-0.05-0.35-0.15c-0.2-0.2-0.2-0.51,0-0.71l9-9c0.2-0.2,0.51-0.2,0.71,0  C26.05,17.34,26.05,17.66,25.85,17.85z"/></svg>