<?xml version="1.0" ?><svg id="Layer_1" style="enable-background:new 0 0 100 100;" version="1.1" viewBox="0 0 100 100" xml:space="preserve" xmlns="http://www.w3.org/2000/svg" xmlns:xlink="http://www.w3.org/1999/xlink"><style type="text/css">
	.st0{fill:#1B1B1B;}
</style><g id="XMLID_2289_"><path class="st0" d="M86.1,37.3V21.9c0-3-2.4-5.4-5.4-5.4h-5.2l-0.4-1.7c-0.2-1-1.2-1.7-2.3-1.7H48.4   c-1.1,0-2.1,0.8-2.3,1.7l-0.4,1.7H5.8c-3,0-5.4,2.4-5.4,5.4v62.9c0,1.2,1,2.1,2.1,2.1H84c1.2,0,2.1-1,2.1-2.1V52.1   c0-0.4-0.4-0.5-0.7-0.3l-2.7,3c-0.1,0.1-0.1,0.2-0.1,0.3v27.1c0,0.6-0.5,1.1-1.1,1.1H5.1c-0.6,0-1.1-0.5-1.1-1.1V35.7   c0-0.6,0.5-1.1,1.1-1.1h76.4c1.4,0,1.1,2.7,1.1,3.3V40c0,0.4,0.4,0.5,0.7,0.3l2.7-2.7C86.1,37.5,86.1,37.4,86.1,37.3z M52.4,27.8   c0,0.3-0.2,0.5-0.5,0.5h-3.8c-0.3,0-0.5-0.2-0.5-0.5V24c0-0.3,0.2-0.5,0.5-0.5h3.8c0.3,0,0.5,0.2,0.5,0.5V27.8z M63,27.8   c0,0.3-0.2,0.5-0.5,0.5h-3.8c-0.3,0-0.5-0.2-0.5-0.5V24c0-0.3,0.2-0.5,0.5-0.5h3.8c0.3,0,0.5,0.2,0.5,0.5V27.8z M73.1,27.8   c0,0.3-0.2,0.5-0.5,0.5h-3.8c-0.3,0-0.5-0.2-0.5-0.5V24c0-0.3,0.2-0.5,0.5-0.5h3.8c0.3,0,0.5,0.2,0.5,0.5V27.8z" id="XMLID_2461_"/><path class="st0" d="M98.5,30.7l-10.7,2.2c-0.6,0.1-0.9,0.9-0.4,1.4l2.6,2.4L69.7,58.1l-4.8-10   c-0.4-0.8-1.2-1.4-2-1.4c-0.9-0.1-1.8,0.3-2.3,1L46.2,66.5l-3.1-6.6c-0.4-0.8-1.2-1.4-2-1.5c-0.9-0.1-1.8,0.3-2.3,1l-8.6,11.3H8.3   v5.1h23.2c0.8,0,1.6-0.4,2-1l6.8-8.9l3.1,6.6c0.4,0.8,1.2,1.4,2,1.5c0.9,0.1,1.8-0.3,2.3-1l14.4-18.8l4.6,9.6   c0.4,0.8,1.1,1.3,1.9,1.4c0.8,0.1,1.7-0.2,2.3-0.8l22.8-24.1l2.9,2.8c0.5,0.5,1.3,0.2,1.4-0.5l1.5-10.9   C99.6,31.1,99.1,30.6,98.5,30.7z" id="XMLID_2352_"/></g></svg>