<?xml version="1.0" ?><svg id="Layer_1" style="enable-background:new 0 0 32 32;" version="1.1" viewBox="0 0 32 32" xml:space="preserve" xmlns="http://www.w3.org/2000/svg" xmlns:xlink="http://www.w3.org/1999/xlink"><style type="text/css">
	.st0{fill:#414042;}
</style><g><path class="st0" d="M13,16.91c0.58-0.21,1-0.76,1-1.41v-1c0-0.65-0.42-1.2-1-1.41V16.91z"/><rect class="st0" height="4" width="1" x="11" y="13"/><path class="st0" d="M26.5,0h-21C4.67,0,4,0.67,4,1.5V28h20.5c0.83,0,1.5,0.67,1.5,1.5V30h2V1.5C28,0.67,27.33,0,26.5,0z M18.5,6h3   C21.78,6,22,6.22,22,6.5S21.78,7,21.5,7h-3C18.22,7,18,6.78,18,6.5S18.22,6,18.5,6z M7.5,23h2c0.28,0,0.5,0.22,0.5,0.5   S9.78,24,9.5,24h-2C7.22,24,7,23.78,7,23.5S7.22,23,7.5,23z M11.5,26h-4C7.22,26,7,25.78,7,25.5S7.22,25,7.5,25h4   c0.28,0,0.5,0.22,0.5,0.5S11.78,26,11.5,26z M15,14.5v1c0,1.21-0.86,2.22-2,2.45v0.55c0,0.28-0.22,0.5-0.5,0.5   c-0.28,0-0.5-0.22-0.5-0.5V18h-1v0.5c0,0.28-0.22,0.5-0.5,0.5c-0.28,0-0.5-0.22-0.5-0.5v-0.55c-1.14-0.23-2-1.24-2-2.45   C8,15.22,8.22,15,8.5,15C8.78,15,9,15.22,9,15.5c0,0.65,0.42,1.2,1,1.41v-3.96c-1.14-0.23-2-1.24-2-2.45v-1   c0-1.21,0.86-2.22,2-2.45V6.5C10,6.22,10.22,6,10.5,6C10.78,6,11,6.22,11,6.5V7h1V6.5C12,6.22,12.22,6,12.5,6   C12.78,6,13,6.22,13,6.5v0.55c1.14,0.23,2,1.24,2,2.45c0,0.28-0.22,0.5-0.5,0.5C14.22,10,14,9.78,14,9.5c0-0.65-0.42-1.2-1-1.41   v3.96C14.14,12.28,15,13.29,15,14.5z M24.5,19h-6c-0.28,0-0.5-0.22-0.5-0.5s0.22-0.5,0.5-0.5h6c0.28,0,0.5,0.22,0.5,0.5   S24.78,19,24.5,19z M24.5,17h-6c-0.28,0-0.5-0.22-0.5-0.5s0.22-0.5,0.5-0.5h6c0.28,0,0.5,0.22,0.5,0.5S24.78,17,24.5,17z M18,14.5   c0-0.28,0.22-0.5,0.5-0.5h3c0.28,0,0.5,0.22,0.5,0.5S21.78,15,21.5,15h-3C18.22,15,18,14.78,18,14.5z M24.5,11h-6   c-0.28,0-0.5-0.22-0.5-0.5s0.22-0.5,0.5-0.5h6c0.28,0,0.5,0.22,0.5,0.5S24.78,11,24.5,11z M24.5,9h-6C18.22,9,18,8.78,18,8.5   S18.22,8,18.5,8h6C24.78,8,25,8.22,25,8.5S24.78,9,24.5,9z"/><rect class="st0" height="4" width="1" x="11" y="8"/><path class="st0" d="M9,9.5v1c0,0.65,0.42,1.2,1,1.41V8.09C9.42,8.3,9,8.85,9,9.5z"/><path class="st0" d="M25,30v-0.5c0-0.28-0.22-0.5-0.5-0.5h-23C1.22,29,1,29.22,1,29.5V30c0,1.1,0.9,2,2,2h23.5   c0.65,0,1.2-0.42,1.41-1H26C25.45,31,25,30.55,25,30z"/></g></svg>