<?xml version="1.0" ?><svg id="Layer_1" style="enable-background:new 0 0 512 512;" version="1.1" viewBox="0 0 512 512" xml:space="preserve" xmlns="http://www.w3.org/2000/svg" xmlns:xlink="http://www.w3.org/1999/xlink"><style type="text/css">
	.st0{fill:#2D2D2D;}
</style><g><path class="st0" d="M288.4,444.2H227c-4.4,0-8-3.6-8-8v-30.5c-13.8-3.6-27-9-39.4-16.3L158.1,411c-3.1,3.1-8.2,3.1-11.3,0   l-43.5-43.4c-3.1-3.1-3.1-8.2,0-11.3l21.5-21.6c-7.3-12.3-12.8-25.5-16.4-39.3l-30.5,0.1c0,0,0,0,0,0c-2.1,0-4.1-0.8-5.6-2.3   c-1.5-1.5-2.4-3.5-2.4-5.7l-0.1-61.5c0-2.1,0.8-4.2,2.3-5.7s3.5-2.4,5.7-2.4l30.5-0.1c3.5-13.8,9-27,16.2-39.4L102.8,157   c-3.1-3.1-3.1-8.2,0-11.3l43.3-43.6c1.5-1.5,3.5-2.4,5.6-2.4c0,0,0,0,0,0c2.1,0,4.1,0.8,5.6,2.3l21.6,21.5   c12.5-7.4,25.9-13,39.9-16.6V79.3c0-4.4,3.6-8,8-8h61.5c4.4,0,8,3.6,8,8v27.7c13.8,3.6,27,9,39.4,16.3l19.5-19.6   c3.1-3.1,8.2-3.1,11.3,0l43.5,43.4c3.1,3.1,3.1,8.2,0,11.3l-19.5,19.6c7.3,12.3,12.8,25.5,16.4,39.3l27.7-0.1c0,0,0,0,0,0   c2.1,0,4.1,0.8,5.6,2.3c1.5,1.5,2.4,3.5,2.4,5.7l0.1,61.5c0,2.1-0.8,4.2-2.3,5.7s-3.5,2.4-5.7,2.4l-27.7,0.1   c-3.5,13.8-9,27-16.2,39.4l19.6,19.5c3.1,3.1,3.1,8.2,0,11.3l-43.3,43.6c-1.5,1.5-3.5,2.4-5.7,2.4c-2.1,0-4.2-0.8-5.7-2.3   l-19.6-19.5c-12.5,7.4-25.9,13-39.9,16.6v30.5C296.4,440.6,292.9,444.2,288.4,444.2z M235,428.2h45.5v-28.8c0-3.8,2.6-7,6.3-7.8   c16.5-3.5,32.1-10,46.3-19.3c3.2-2.1,7.3-1.6,10,1l18.4,18.3l32.1-32.3L375.2,341c-2.7-2.7-3.1-6.8-1.1-10   c9.1-14.1,15.4-29.6,18.9-45.9c0.8-3.7,4-6.3,7.8-6.3l26-0.1l-0.1-45.5l-26,0.1c0,0,0,0,0,0c-3.8,0-7-2.6-7.8-6.3   c-3.5-16.4-10-31.8-19.1-45.8c-2.1-3.2-1.6-7.3,1-10l18.4-18.4L361,120.6L342.6,139c-2.7,2.7-6.8,3.1-10,1.1   c-14.1-9.1-29.5-15.5-45.9-19c-3.7-0.8-6.3-4-6.3-7.8v-26H235v26c0,3.8-2.6,7-6.3,7.8c-16.5,3.5-32.1,10-46.3,19.3   c-3.2,2.1-7.3,1.6-10-1L151.8,119l-32.1,32.3l20.4,20.3c2.7,2.7,3.1,6.8,1.1,10c-9.1,14.1-15.4,29.6-18.9,45.9   c-0.8,3.7-4,6.3-7.8,6.3l-28.8,0.1l0.1,45.5l28.8-0.1c0,0,0,0,0,0c3.8,0,7,2.6,7.8,6.3c3.5,16.4,10,31.8,19.1,45.8   c2.1,3.2,1.6,7.3-1,10l-20.4,20.4l32.2,32.1l20.4-20.4c2.7-2.7,6.8-3.1,10-1.1c14.1,9.1,29.5,15.5,45.9,19c3.7,0.8,6.3,4,6.3,7.8   V428.2z"/></g><g><path class="st0" d="M256.3,359c-57,0-103.3-46.3-103.3-103.3c0-57,46.3-103.3,103.3-103.3c57,0,103.3,46.3,103.3,103.3   C359.6,312.7,313.2,359,256.3,359z M256.3,168.4c-48.1,0-87.3,39.2-87.3,87.3c0,48.1,39.2,87.3,87.3,87.3   c48.1,0,87.3-39.2,87.3-87.3C343.6,207.6,304.4,168.4,256.3,168.4z"/></g></svg>